<mxfile host="Electron" modified="2024-05-22T18:25:11.631Z" agent="Mozilla/5.0 (Macintosh; Intel Mac OS X 10_15_7) AppleWebKit/537.36 (KHTML, like Gecko) draw.io/24.4.6 Chrome/124.0.6367.207 Electron/30.0.6 Safari/537.36" etag="8DwiVDb8Ni7vmrtG4lnz" version="24.4.6" type="device">
  <diagram name="Page-1" id="8ZbG-skrCnT_tezeTUYT">
    <mxGraphModel dx="1026" dy="1795" grid="1" gridSize="10" guides="1" tooltips="1" connect="1" arrows="1" fold="1" page="1" pageScale="1" pageWidth="850" pageHeight="1100" math="0" shadow="0">
      <root>
        <mxCell id="0" />
        <mxCell id="1" parent="0" />
        <mxCell id="ywFd-5obEQ4wZfEppQly-5" style="edgeStyle=orthogonalEdgeStyle;rounded=0;orthogonalLoop=1;jettySize=auto;html=1;" parent="1" source="ywFd-5obEQ4wZfEppQly-1" target="ywFd-5obEQ4wZfEppQly-4" edge="1">
          <mxGeometry relative="1" as="geometry" />
        </mxCell>
        <mxCell id="ywFd-5obEQ4wZfEppQly-1" value="Slack App" style="shape=image;html=1;verticalAlign=top;verticalLabelPosition=bottom;labelBackgroundColor=#ffffff;imageAspect=0;aspect=fixed;image=https://cdn2.iconfinder.com/data/icons/social-media-2285/512/1_Slack_colored_svg-128.png" parent="1" vertex="1">
          <mxGeometry x="240" y="275" width="78" height="78" as="geometry" />
        </mxCell>
        <mxCell id="ywFd-5obEQ4wZfEppQly-3" style="edgeStyle=orthogonalEdgeStyle;rounded=0;orthogonalLoop=1;jettySize=auto;html=1;exitX=0.9;exitY=0.5;exitDx=0;exitDy=0;exitPerimeter=0;" parent="1" source="BBX6ygWkRTCgq7D9Euyk-9" target="ywFd-5obEQ4wZfEppQly-1" edge="1">
          <mxGeometry relative="1" as="geometry">
            <mxPoint x="150" y="314" as="sourcePoint" />
          </mxGeometry>
        </mxCell>
        <mxCell id="BBX6ygWkRTCgq7D9Euyk-3" value="AWS Cloud" style="points=[[0,0],[0.25,0],[0.5,0],[0.75,0],[1,0],[1,0.25],[1,0.5],[1,0.75],[1,1],[0.75,1],[0.5,1],[0.25,1],[0,1],[0,0.75],[0,0.5],[0,0.25]];outlineConnect=0;gradientColor=none;html=1;whiteSpace=wrap;fontSize=12;fontStyle=0;container=1;pointerEvents=0;collapsible=0;recursiveResize=0;shape=mxgraph.aws4.group;grIcon=mxgraph.aws4.group_aws_cloud_alt;strokeColor=#232F3E;fillColor=none;verticalAlign=top;align=left;spacingLeft=30;fontColor=#232F3E;dashed=0;" parent="1" vertex="1">
          <mxGeometry x="380" y="-10" width="730" height="670" as="geometry" />
        </mxCell>
        <mxCell id="BBX6ygWkRTCgq7D9Euyk-7" value="AWS Account" style="points=[[0,0],[0.25,0],[0.5,0],[0.75,0],[1,0],[1,0.25],[1,0.5],[1,0.75],[1,1],[0.75,1],[0.5,1],[0.25,1],[0,1],[0,0.75],[0,0.5],[0,0.25]];outlineConnect=0;gradientColor=none;html=1;whiteSpace=wrap;fontSize=12;fontStyle=0;container=1;pointerEvents=0;collapsible=0;recursiveResize=0;shape=mxgraph.aws4.group;grIcon=mxgraph.aws4.group_account;strokeColor=#CD2264;fillColor=none;verticalAlign=top;align=left;spacingLeft=30;fontColor=#CD2264;dashed=0;" parent="BBX6ygWkRTCgq7D9Euyk-3" vertex="1">
          <mxGeometry x="25" y="40" width="675" height="610" as="geometry" />
        </mxCell>
        <mxCell id="BBX6ygWkRTCgq7D9Euyk-8" value="Region" style="points=[[0,0],[0.25,0],[0.5,0],[0.75,0],[1,0],[1,0.25],[1,0.5],[1,0.75],[1,1],[0.75,1],[0.5,1],[0.25,1],[0,1],[0,0.75],[0,0.5],[0,0.25]];outlineConnect=0;gradientColor=none;html=1;whiteSpace=wrap;fontSize=12;fontStyle=0;container=1;pointerEvents=0;collapsible=0;recursiveResize=0;shape=mxgraph.aws4.group;grIcon=mxgraph.aws4.group_region;strokeColor=#00A4A6;fillColor=none;verticalAlign=top;align=left;spacingLeft=30;fontColor=#147EBA;dashed=1;" parent="BBX6ygWkRTCgq7D9Euyk-7" vertex="1">
          <mxGeometry x="45" y="40" width="595" height="550" as="geometry" />
        </mxCell>
        <mxCell id="BBX6ygWkRTCgq7D9Euyk-5" value="Amazon Bedrock" style="sketch=0;points=[[0,0,0],[0.25,0,0],[0.5,0,0],[0.75,0,0],[1,0,0],[0,1,0],[0.25,1,0],[0.5,1,0],[0.75,1,0],[1,1,0],[0,0.25,0],[0,0.5,0],[0,0.75,0],[1,0.25,0],[1,0.5,0],[1,0.75,0]];outlineConnect=0;fontColor=#232F3E;fillColor=#01A88D;strokeColor=#ffffff;dashed=0;verticalLabelPosition=bottom;verticalAlign=top;align=center;html=1;fontSize=12;fontStyle=0;aspect=fixed;shape=mxgraph.aws4.resourceIcon;resIcon=mxgraph.aws4.bedrock;" parent="BBX6ygWkRTCgq7D9Euyk-8" vertex="1">
          <mxGeometry x="490" y="205" width="78" height="78" as="geometry" />
        </mxCell>
        <mxCell id="Y78M5VA5ncaBrRz_UNLu-4" style="edgeStyle=orthogonalEdgeStyle;rounded=0;orthogonalLoop=1;jettySize=auto;html=1;" edge="1" parent="BBX6ygWkRTCgq7D9Euyk-8" source="ywFd-5obEQ4wZfEppQly-4" target="Y78M5VA5ncaBrRz_UNLu-3">
          <mxGeometry relative="1" as="geometry" />
        </mxCell>
        <mxCell id="ywFd-5obEQ4wZfEppQly-4" value="Amazon API Gateway" style="sketch=0;points=[[0,0,0],[0.25,0,0],[0.5,0,0],[0.75,0,0],[1,0,0],[0,1,0],[0.25,1,0],[0.5,1,0],[0.75,1,0],[1,1,0],[0,0.25,0],[0,0.5,0],[0,0.75,0],[1,0.25,0],[1,0.5,0],[1,0.75,0]];outlineConnect=0;fontColor=#232F3E;fillColor=#8C4FFF;strokeColor=#ffffff;dashed=0;verticalLabelPosition=bottom;verticalAlign=top;align=center;html=1;fontSize=12;fontStyle=0;aspect=fixed;shape=mxgraph.aws4.resourceIcon;resIcon=mxgraph.aws4.api_gateway;" parent="BBX6ygWkRTCgq7D9Euyk-8" vertex="1">
          <mxGeometry x="90" y="205" width="78" height="78" as="geometry" />
        </mxCell>
        <mxCell id="5CPfOAxAE1KTDDNHdX7s-2" value="2" style="ellipse;whiteSpace=wrap;html=1;aspect=fixed;strokeWidth=2;fontFamily=Tahoma;spacingBottom=4;spacingRight=2;strokeColor=#d3d3d3;" parent="BBX6ygWkRTCgq7D9Euyk-8" vertex="1">
          <mxGeometry x="20" y="208" width="20" height="20" as="geometry" />
        </mxCell>
        <mxCell id="5CPfOAxAE1KTDDNHdX7s-3" value="3" style="ellipse;whiteSpace=wrap;html=1;aspect=fixed;strokeWidth=2;fontFamily=Tahoma;spacingBottom=4;spacingRight=2;strokeColor=#d3d3d3;" parent="BBX6ygWkRTCgq7D9Euyk-8" vertex="1">
          <mxGeometry x="230" y="208" width="20" height="20" as="geometry" />
        </mxCell>
        <mxCell id="5CPfOAxAE1KTDDNHdX7s-4" value="4" style="ellipse;whiteSpace=wrap;html=1;aspect=fixed;strokeWidth=2;fontFamily=Tahoma;spacingBottom=4;spacingRight=2;strokeColor=#d3d3d3;" parent="BBX6ygWkRTCgq7D9Euyk-8" vertex="1">
          <mxGeometry x="430" y="208" width="20" height="20" as="geometry" />
        </mxCell>
        <mxCell id="Y78M5VA5ncaBrRz_UNLu-2" style="edgeStyle=orthogonalEdgeStyle;rounded=0;orthogonalLoop=1;jettySize=auto;html=1;" edge="1" parent="BBX6ygWkRTCgq7D9Euyk-8" source="5CPfOAxAE1KTDDNHdX7s-6" target="Y78M5VA5ncaBrRz_UNLu-1">
          <mxGeometry relative="1" as="geometry" />
        </mxCell>
        <mxCell id="Y78M5VA5ncaBrRz_UNLu-8" style="edgeStyle=orthogonalEdgeStyle;rounded=0;orthogonalLoop=1;jettySize=auto;html=1;" edge="1" parent="BBX6ygWkRTCgq7D9Euyk-8" source="5CPfOAxAE1KTDDNHdX7s-6" target="Y78M5VA5ncaBrRz_UNLu-5">
          <mxGeometry relative="1" as="geometry" />
        </mxCell>
        <mxCell id="5CPfOAxAE1KTDDNHdX7s-6" value="AWS Lambda" style="outlineConnect=0;dashed=0;verticalLabelPosition=bottom;verticalAlign=top;align=center;html=1;shape=mxgraph.aws3.lambda_function;fillColor=#F58534;gradientColor=none;" parent="BBX6ygWkRTCgq7D9Euyk-8" vertex="1">
          <mxGeometry x="310" y="208" width="69" height="72" as="geometry" />
        </mxCell>
        <mxCell id="ywFd-5obEQ4wZfEppQly-9" style="edgeStyle=orthogonalEdgeStyle;rounded=0;orthogonalLoop=1;jettySize=auto;html=1;" parent="BBX6ygWkRTCgq7D9Euyk-8" source="ywFd-5obEQ4wZfEppQly-4" target="5CPfOAxAE1KTDDNHdX7s-6" edge="1">
          <mxGeometry relative="1" as="geometry">
            <mxPoint x="260" y="124" as="targetPoint" />
          </mxGeometry>
        </mxCell>
        <mxCell id="BBX6ygWkRTCgq7D9Euyk-2" style="edgeStyle=orthogonalEdgeStyle;rounded=0;orthogonalLoop=1;jettySize=auto;html=1;exitX=1;exitY=0.5;exitDx=0;exitDy=0;exitPerimeter=0;" parent="BBX6ygWkRTCgq7D9Euyk-8" source="5CPfOAxAE1KTDDNHdX7s-6" target="BBX6ygWkRTCgq7D9Euyk-5" edge="1">
          <mxGeometry relative="1" as="geometry">
            <mxPoint x="440" y="124" as="targetPoint" />
            <mxPoint x="338" y="124" as="sourcePoint" />
          </mxGeometry>
        </mxCell>
        <mxCell id="Y78M5VA5ncaBrRz_UNLu-1" value="AWS Secrets Manager" style="sketch=0;points=[[0,0,0],[0.25,0,0],[0.5,0,0],[0.75,0,0],[1,0,0],[0,1,0],[0.25,1,0],[0.5,1,0],[0.75,1,0],[1,1,0],[0,0.25,0],[0,0.5,0],[0,0.75,0],[1,0.25,0],[1,0.5,0],[1,0.75,0]];outlineConnect=0;fontColor=#232F3E;fillColor=#DD344C;strokeColor=#ffffff;dashed=0;verticalLabelPosition=bottom;verticalAlign=top;align=center;html=1;fontSize=12;fontStyle=0;aspect=fixed;shape=mxgraph.aws4.resourceIcon;resIcon=mxgraph.aws4.secrets_manager;" vertex="1" parent="BBX6ygWkRTCgq7D9Euyk-8">
          <mxGeometry x="305.5" y="390" width="78" height="78" as="geometry" />
        </mxCell>
        <mxCell id="Y78M5VA5ncaBrRz_UNLu-3" value="Amazon CloudWatch Log Group" style="sketch=0;outlineConnect=0;fontColor=#232F3E;gradientColor=none;fillColor=#E7157B;strokeColor=none;dashed=0;verticalLabelPosition=bottom;verticalAlign=top;align=center;html=1;fontSize=12;fontStyle=0;aspect=fixed;pointerEvents=1;shape=mxgraph.aws4.cloudwatch_logs;" vertex="1" parent="BBX6ygWkRTCgq7D9Euyk-8">
          <mxGeometry x="90" y="50" width="78" height="58" as="geometry" />
        </mxCell>
        <mxCell id="Y78M5VA5ncaBrRz_UNLu-5" value="Amazon CloudWatch Log Group" style="sketch=0;outlineConnect=0;fontColor=#232F3E;gradientColor=none;fillColor=#E7157B;strokeColor=none;dashed=0;verticalLabelPosition=bottom;verticalAlign=top;align=center;html=1;fontSize=12;fontStyle=0;aspect=fixed;pointerEvents=1;shape=mxgraph.aws4.cloudwatch_logs;" vertex="1" parent="BBX6ygWkRTCgq7D9Euyk-8">
          <mxGeometry x="305.5" y="50" width="78" height="58" as="geometry" />
        </mxCell>
        <mxCell id="BBX6ygWkRTCgq7D9Euyk-9" value="" style="shape=actor;whiteSpace=wrap;html=1;" parent="1" vertex="1">
          <mxGeometry x="90" y="284" width="40" height="60" as="geometry" />
        </mxCell>
        <mxCell id="5CPfOAxAE1KTDDNHdX7s-1" value="1" style="ellipse;whiteSpace=wrap;html=1;aspect=fixed;strokeWidth=2;fontFamily=Tahoma;spacingBottom=4;spacingRight=2;strokeColor=#d3d3d3;" parent="1" vertex="1">
          <mxGeometry x="170" y="280" width="20" height="20" as="geometry" />
        </mxCell>
      </root>
    </mxGraphModel>
  </diagram>
</mxfile>
